<svg xmlns="http://www.w3.org/2000/svg" width="14" height="15" viewBox="0 0 14 15" fill="none">
  <path d="M4.77789 0.5H1.44433C0.64665 0.5 0 1.14665 0 1.94433V5.27789C0 6.07557 0.64665 6.72222 1.44433 6.72222H4.77789C5.57557 6.72222 6.22222 6.07557 6.22222 5.27789V1.94433C6.22222 1.14665 5.57557 0.5 4.77789 0.5Z" fill="#00A2D4"/>
  <path d="M12.5557 0.5H9.22211C8.42443 0.5 7.77778 1.14665 7.77778 1.94433V5.27789C7.77778 6.07557 8.42443 6.72222 9.22211 6.72222H12.5557C13.3533 6.72222 14 6.07557 14 5.27789V1.94433C14 1.14665 13.3533 0.5 12.5557 0.5Z" fill="#00A2D4"/>
  <path d="M4.77789 8.27778H1.44433C0.64665 8.27778 0 8.92443 0 9.72211V13.0557C0 13.8533 0.64665 14.5 1.44433 14.5H4.77789C5.57557 14.5 6.22222 13.8533 6.22222 13.0557V9.72211C6.22222 8.92443 5.57557 8.27778 4.77789 8.27778Z" fill="#00A2D4"/>
  <path d="M13.2222 10.6111H11.6667V9.05556C11.6667 8.84928 11.5847 8.65145 11.4389 8.50558C11.293 8.35972 11.0952 8.27778 10.8889 8.27778C10.6826 8.27778 10.4848 8.35972 10.3389 8.50558C10.1931 8.65145 10.1111 8.84928 10.1111 9.05556V10.6111H8.55556C8.34928 10.6111 8.15145 10.6931 8.00558 10.8389C7.85972 10.9848 7.77778 11.1826 7.77778 11.3889C7.77778 11.5952 7.85972 11.793 8.00558 11.9389C8.15145 12.0847 8.34928 12.1667 8.55556 12.1667H10.1111V13.7222C10.1111 13.9285 10.1931 14.1263 10.3389 14.2722C10.4848 14.4181 10.6826 14.5 10.8889 14.5C11.0952 14.5 11.293 14.4181 11.4389 14.2722C11.5847 14.1263 11.6667 13.9285 11.6667 13.7222V12.1667H13.2222C13.4285 12.1667 13.6263 12.0847 13.7722 11.9389C13.9181 11.793 14 11.5952 14 11.3889C14 11.1826 13.9181 10.9848 13.7722 10.8389C13.6263 10.6931 13.4285 10.6111 13.2222 10.6111Z" fill="#00A2D4"/>
</svg>