
    <svg width="16" height="17" viewBox="0 0 16 17" fill="none" xmlns="http://www.w3.org/2000/svg">
        <g clipPath="url(#clip0_13407_14590)">
        <path d="M5.4987 4.5V0.604C5.09703 0.7144 4.72453 0.9112 4.4212 1.2032L2.06453 3.4656C1.7612 3.7568 1.5562 4.1144 1.44036 4.5H5.4987Z" fill="#6B7280"/>
        <path d="M13.0537 0.5H7.16536V4.5C7.16536 5.3824 6.41786 6.1 5.4987 6.1H1.33203V14.9C1.33203 15.7824 2.05453 16.5 2.9437 16.5H13.0545C13.9429 16.5 14.6654 15.7824 14.6654 14.9V2.1C14.6654 1.2176 13.9429 0.5 13.0537 0.5ZM11.0879 9.0656L7.75453 12.2656C7.59203 12.4216 7.3787 12.5 7.16536 12.5C6.95203 12.5 6.7387 12.4216 6.5762 12.2656L4.90953 10.6656C4.5837 10.3528 4.5837 9.8472 4.90953 9.5344C5.23536 9.2216 5.76203 9.2216 6.08786 9.5344L7.16536 10.5688L9.90953 7.9344C10.2354 7.6216 10.762 7.6216 11.0879 7.9344C11.4137 8.2472 11.4137 8.7528 11.0879 9.0656Z" fill="#6B7280"/>
        </g>
        <defs>
        <clipPath id="clip0_13407_14590">
        <rect width="16" height="16" fill="white" transform="translate(0 0.5)"/>
        </clipPath>
        </defs>
    </svg>