<svg width="710" height="204" viewBox="0 0 710 204" fill="none" xmlns="http://www.w3.org/2000/svg">
<path d="M24.346 163.116C24.346 163.872 24.0753 164.493 23.534 164.978C23.002 165.454 22.2553 165.72 21.294 165.776V166.7H20.454V165.776C19.67 165.711 19.0026 165.501 18.452 165.146C17.9013 164.782 17.5 164.306 17.248 163.718L18.242 163.074C18.6806 163.942 19.418 164.446 20.454 164.586V161.52L20.034 161.422C18.3446 161.03 17.5 160.218 17.5 158.986C17.5 158.267 17.7613 157.675 18.284 157.208C18.816 156.741 19.5393 156.48 20.454 156.424V155.5H21.294V156.424C21.9753 156.489 22.5633 156.667 23.058 156.956C23.5526 157.245 23.9073 157.614 24.122 158.062L23.156 158.734C22.764 158.099 22.1433 157.726 21.294 157.614V160.512L21.896 160.652C23.5293 161.044 24.346 161.865 24.346 163.116ZM20.412 160.302L20.454 160.316V157.6C19.9406 157.637 19.5393 157.777 19.25 158.02C18.97 158.263 18.83 158.575 18.83 158.958C18.83 159.294 18.9513 159.569 19.194 159.784C19.4366 159.989 19.8426 160.162 20.412 160.302ZM21.294 164.6C21.8353 164.563 22.2506 164.413 22.54 164.152C22.8386 163.891 22.988 163.55 22.988 163.13C22.988 162.775 22.8666 162.491 22.624 162.276C22.3906 162.052 22.0033 161.879 21.462 161.758L21.294 161.716V164.6ZM29.9118 166.196C28.6798 166.196 27.7092 165.748 26.9998 164.852C26.2998 163.956 25.9498 162.705 25.9498 161.1C25.9498 159.495 26.2998 158.244 26.9998 157.348C27.7092 156.452 28.6798 156.004 29.9118 156.004C31.1345 156.004 32.1005 156.452 32.8098 157.348C33.5192 158.244 33.8738 159.495 33.8738 161.1C33.8738 162.705 33.5192 163.956 32.8098 164.852C32.1005 165.748 31.1345 166.196 29.9118 166.196ZM29.9118 164.95C31.6105 164.95 32.4598 163.667 32.4598 161.1C32.4598 158.533 31.6105 157.25 29.9118 157.25C28.2038 157.25 27.3498 158.533 27.3498 161.1C27.3498 163.667 28.2038 164.95 29.9118 164.95Z" fill="#6B7280"/>
<line x1="66.8281" y1="162.228" x2="704" y2="162.228" stroke="#E5E7EB" stroke-width="0.544186" stroke-dasharray="2.72 2.72"/>
<path d="M8.05711 125.116C8.05711 125.872 7.78644 126.493 7.24511 126.978C6.71311 127.454 5.96644 127.72 5.00511 127.776V128.7H4.16511V127.776C3.38111 127.711 2.71378 127.501 2.16311 127.146C1.61244 126.782 1.21111 126.306 0.959109 125.718L1.95311 125.074C2.39178 125.942 3.12911 126.446 4.16511 126.586V123.52L3.74511 123.422C2.05578 123.03 1.21111 122.218 1.21111 120.986C1.21111 120.267 1.47244 119.675 1.99511 119.208C2.52711 118.741 3.25044 118.48 4.16511 118.424V117.5H5.00511V118.424C5.68644 118.489 6.27444 118.667 6.76911 118.956C7.26378 119.245 7.61844 119.614 7.83311 120.062L6.86711 120.734C6.47511 120.099 5.85444 119.726 5.00511 119.614V122.512L5.60711 122.652C7.24044 123.044 8.05711 123.865 8.05711 125.116ZM4.12311 122.302L4.16511 122.316V119.6C3.65178 119.637 3.25044 119.777 2.96111 120.02C2.68111 120.263 2.54111 120.575 2.54111 120.958C2.54111 121.294 2.66244 121.569 2.90511 121.784C3.14778 121.989 3.55378 122.162 4.12311 122.302ZM5.00511 126.6C5.54644 126.563 5.96178 126.413 6.25111 126.152C6.54978 125.891 6.69911 125.55 6.69911 125.13C6.69911 124.775 6.57778 124.491 6.33511 124.276C6.10178 124.052 5.71444 123.879 5.17311 123.758L5.00511 123.716V126.6ZM13.049 121.896C14.0197 121.896 14.8037 122.171 15.401 122.722C16.0077 123.263 16.311 124.005 16.311 124.948C16.311 125.928 15.9797 126.717 15.317 127.314C14.6637 127.902 13.7817 128.196 12.671 128.196C11.3177 128.196 10.2023 127.72 9.32498 126.768L10.137 125.9C10.8743 126.609 11.7097 126.964 12.643 126.964C13.371 126.964 13.9357 126.787 14.337 126.432C14.7477 126.068 14.953 125.578 14.953 124.962C14.953 124.374 14.771 123.917 14.407 123.59C14.0523 123.254 13.553 123.086 12.909 123.086C12.1903 123.086 11.5277 123.305 10.921 123.744L9.84298 123.128V118.2H15.751V119.432H11.131V122.414C11.6817 122.069 12.321 121.896 13.049 121.896ZM17.5001 130.1L18.1861 126.264H19.5441L18.5361 130.1H17.5001ZM24.4238 128.196C23.1918 128.196 22.2211 127.748 21.5118 126.852C20.8118 125.956 20.4618 124.705 20.4618 123.1C20.4618 121.495 20.8118 120.244 21.5118 119.348C22.2211 118.452 23.1918 118.004 24.4238 118.004C25.6464 118.004 26.6124 118.452 27.3218 119.348C28.0311 120.244 28.3858 121.495 28.3858 123.1C28.3858 124.705 28.0311 125.956 27.3218 126.852C26.6124 127.748 25.6464 128.196 24.4238 128.196ZM24.4238 126.95C26.1224 126.95 26.9718 125.667 26.9718 123.1C26.9718 120.533 26.1224 119.25 24.4238 119.25C22.7158 119.25 21.8618 120.533 21.8618 123.1C21.8618 125.667 22.7158 126.95 24.4238 126.95ZM34.2538 128.196C33.0218 128.196 32.0512 127.748 31.3418 126.852C30.6418 125.956 30.2918 124.705 30.2918 123.1C30.2918 121.495 30.6418 120.244 31.3418 119.348C32.0512 118.452 33.0218 118.004 34.2538 118.004C35.4765 118.004 36.4425 118.452 37.1518 119.348C37.8612 120.244 38.2158 121.495 38.2158 123.1C38.2158 124.705 37.8612 125.956 37.1518 126.852C36.4425 127.748 35.4765 128.196 34.2538 128.196ZM34.2538 126.95C35.9525 126.95 36.8018 125.667 36.8018 123.1C36.8018 120.533 35.9525 119.25 34.2538 119.25C32.5458 119.25 31.6918 120.533 31.6918 123.1C31.6918 125.667 32.5458 126.95 34.2538 126.95ZM44.0839 128.196C42.8519 128.196 41.8813 127.748 41.1719 126.852C40.4719 125.956 40.1219 124.705 40.1219 123.1C40.1219 121.495 40.4719 120.244 41.1719 119.348C41.8813 118.452 42.8519 118.004 44.0839 118.004C45.3066 118.004 46.2726 118.452 46.9819 119.348C47.6913 120.244 48.0459 121.495 48.0459 123.1C48.0459 124.705 47.6913 125.956 46.9819 126.852C46.2726 127.748 45.3066 128.196 44.0839 128.196ZM44.0839 126.95C45.7826 126.95 46.6319 125.667 46.6319 123.1C46.6319 120.533 45.7826 119.25 44.0839 119.25C42.3759 119.25 41.5219 120.533 41.5219 123.1C41.5219 125.667 42.3759 126.95 44.0839 126.95Z" fill="#6B7280"/>
<line x1="81" y1="124.228" x2="704" y2="124.228" stroke="#E5E7EB" stroke-width="0.544186" stroke-dasharray="2.72 2.72"/>
<path d="M8.64695 87.116C8.64695 87.872 8.37629 88.4927 7.83495 88.978C7.30295 89.454 6.55629 89.72 5.59495 89.776V90.7H4.75495V89.776C3.97095 89.7107 3.30362 89.5007 2.75295 89.146C2.20229 88.782 1.80095 88.306 1.54895 87.718L2.54295 87.074C2.98162 87.942 3.71895 88.446 4.75495 88.586V85.52L4.33495 85.422C2.64562 85.03 1.80095 84.218 1.80095 82.986C1.80095 82.2673 2.06229 81.6747 2.58495 81.208C3.11695 80.7413 3.84029 80.48 4.75495 80.424V79.5H5.59495V80.424C6.27629 80.4893 6.86429 80.6667 7.35895 80.956C7.85362 81.2453 8.20829 81.614 8.42295 82.062L7.45695 82.734C7.06495 82.0993 6.44429 81.726 5.59495 81.614V84.512L6.19695 84.652C7.83029 85.044 8.64695 85.8653 8.64695 87.116ZM4.71295 84.302L4.75495 84.316V81.6C4.24162 81.6373 3.84029 81.7773 3.55095 82.02C3.27095 82.2627 3.13095 82.5753 3.13095 82.958C3.13095 83.294 3.25229 83.5693 3.49495 83.784C3.73762 83.9893 4.14362 84.162 4.71295 84.302ZM5.59495 88.6C6.13629 88.5627 6.55162 88.4133 6.84095 88.152C7.13962 87.8907 7.28895 87.55 7.28895 87.13C7.28895 86.7753 7.16762 86.4907 6.92495 86.276C6.69162 86.052 6.30429 85.8793 5.76295 85.758L5.59495 85.716V88.6ZM12.6061 80.2H13.7261V90H12.3821V81.642L9.83411 82.944V81.628L12.6061 80.2ZM20.1054 90.196C18.8734 90.196 17.9027 89.748 17.1934 88.852C16.4934 87.956 16.1434 86.7053 16.1434 85.1C16.1434 83.4947 16.4934 82.244 17.1934 81.348C17.9027 80.452 18.8734 80.004 20.1054 80.004C21.3281 80.004 22.2941 80.452 23.0034 81.348C23.7127 82.244 24.0674 83.4947 24.0674 85.1C24.0674 86.7053 23.7127 87.956 23.0034 88.852C22.2941 89.748 21.3281 90.196 20.1054 90.196ZM20.1054 88.95C21.8041 88.95 22.6534 87.6667 22.6534 85.1C22.6534 82.5333 21.8041 81.25 20.1054 81.25C18.3974 81.25 17.5434 82.5333 17.5434 85.1C17.5434 87.6667 18.3974 88.95 20.1054 88.95ZM25.5001 92.1L26.1861 88.264H27.5441L26.5361 92.1H25.5001ZM32.4238 90.196C31.1918 90.196 30.2211 89.748 29.5118 88.852C28.8118 87.956 28.4618 86.7053 28.4618 85.1C28.4618 83.4947 28.8118 82.244 29.5118 81.348C30.2211 80.452 31.1918 80.004 32.4238 80.004C33.6464 80.004 34.6124 80.452 35.3218 81.348C36.0311 82.244 36.3858 83.4947 36.3858 85.1C36.3858 86.7053 36.0311 87.956 35.3218 88.852C34.6124 89.748 33.6464 90.196 32.4238 90.196ZM32.4238 88.95C34.1224 88.95 34.9718 87.6667 34.9718 85.1C34.9718 82.5333 34.1224 81.25 32.4238 81.25C30.7158 81.25 29.8618 82.5333 29.8618 85.1C29.8618 87.6667 30.7158 88.95 32.4238 88.95ZM42.2538 90.196C41.0218 90.196 40.0512 89.748 39.3418 88.852C38.6418 87.956 38.2918 86.7053 38.2918 85.1C38.2918 83.4947 38.6418 82.244 39.3418 81.348C40.0512 80.452 41.0218 80.004 42.2538 80.004C43.4765 80.004 44.4425 80.452 45.1518 81.348C45.8612 82.244 46.2158 83.4947 46.2158 85.1C46.2158 86.7053 45.8612 87.956 45.1518 88.852C44.4425 89.748 43.4765 90.196 42.2538 90.196ZM42.2538 88.95C43.9525 88.95 44.8018 87.6667 44.8018 85.1C44.8018 82.5333 43.9525 81.25 42.2538 81.25C40.5458 81.25 39.6918 82.5333 39.6918 85.1C39.6918 87.6667 40.5458 88.95 42.2538 88.95ZM52.0839 90.196C50.8519 90.196 49.8813 89.748 49.1719 88.852C48.4719 87.956 48.1219 86.7053 48.1219 85.1C48.1219 83.4947 48.4719 82.244 49.1719 81.348C49.8813 80.452 50.8519 80.004 52.0839 80.004C53.3066 80.004 54.2726 80.452 54.9819 81.348C55.6913 82.244 56.0459 83.4947 56.0459 85.1C56.0459 86.7053 55.6913 87.956 54.9819 88.852C54.2726 89.748 53.3066 90.196 52.0839 90.196ZM52.0839 88.95C53.7826 88.95 54.6319 87.6667 54.6319 85.1C54.6319 82.5333 53.7826 81.25 52.0839 81.25C50.3759 81.25 49.5219 82.5333 49.5219 85.1C49.5219 87.6667 50.3759 88.95 52.0839 88.95Z" fill="#6B7280"/>
<line x1="89" y1="86.2279" x2="704" y2="86.2279" stroke="#E5E7EB" stroke-width="0.544186" stroke-dasharray="2.72 2.72"/>
<path d="M12.1645 49.116C12.1645 49.872 11.8939 50.4927 11.3525 50.978C10.8205 51.454 10.0739 51.72 9.11253 51.776V52.7H8.27253V51.776C7.48853 51.7107 6.8212 51.5007 6.27053 51.146C5.71986 50.782 5.31853 50.306 5.06653 49.718L6.06053 49.074C6.4992 49.942 7.23653 50.446 8.27253 50.586V47.52L7.85253 47.422C6.1632 47.03 5.31853 46.218 5.31853 44.986C5.31853 44.2673 5.57986 43.6747 6.10253 43.208C6.63453 42.7413 7.35786 42.48 8.27253 42.424V41.5H9.11253V42.424C9.79386 42.4893 10.3819 42.6667 10.8765 42.956C11.3712 43.2453 11.7259 43.614 11.9405 44.062L10.9745 44.734C10.5825 44.0993 9.96186 43.726 9.11253 43.614V46.512L9.71453 46.652C11.3479 47.044 12.1645 47.8653 12.1645 49.116ZM8.23053 46.302L8.27253 46.316V43.6C7.7592 43.6373 7.35786 43.7773 7.06853 44.02C6.78853 44.2627 6.64853 44.5753 6.64853 44.958C6.64853 45.294 6.76986 45.5693 7.01253 45.784C7.2552 45.9893 7.6612 46.162 8.23053 46.302ZM9.11253 50.6C9.65386 50.5627 10.0692 50.4133 10.3585 50.152C10.6572 49.8907 10.8065 49.55 10.8065 49.13C10.8065 48.7753 10.6852 48.4907 10.4425 48.276C10.2092 48.052 9.82186 47.8793 9.28053 47.758L9.11253 47.716V50.6ZM16.1237 42.2H17.2437V52H15.8997V43.642L13.3517 44.944V43.628L16.1237 42.2ZM23.049 45.896C24.0197 45.896 24.8037 46.1713 25.401 46.722C26.0077 47.2633 26.311 48.0053 26.311 48.948C26.311 49.928 25.9797 50.7167 25.317 51.314C24.6637 51.902 23.7817 52.196 22.671 52.196C21.3177 52.196 20.2023 51.72 19.325 50.768L20.137 49.9C20.8743 50.6093 21.7097 50.964 22.643 50.964C23.371 50.964 23.9357 50.7867 24.337 50.432C24.7477 50.068 24.953 49.578 24.953 48.962C24.953 48.374 24.771 47.9167 24.407 47.59C24.0523 47.254 23.553 47.086 22.909 47.086C22.1903 47.086 21.5277 47.3053 20.921 47.744L19.843 47.128V42.2H25.751V43.432H21.131V46.414C21.6817 46.0687 22.321 45.896 23.049 45.896ZM27.5001 54.1L28.1861 50.264H29.5441L28.5361 54.1H27.5001ZM34.4238 52.196C33.1918 52.196 32.2211 51.748 31.5118 50.852C30.8118 49.956 30.4618 48.7053 30.4618 47.1C30.4618 45.4947 30.8118 44.244 31.5118 43.348C32.2211 42.452 33.1918 42.004 34.4238 42.004C35.6464 42.004 36.6124 42.452 37.3218 43.348C38.0311 44.244 38.3858 45.4947 38.3858 47.1C38.3858 48.7053 38.0311 49.956 37.3218 50.852C36.6124 51.748 35.6464 52.196 34.4238 52.196ZM34.4238 50.95C36.1224 50.95 36.9718 49.6667 36.9718 47.1C36.9718 44.5333 36.1224 43.25 34.4238 43.25C32.7158 43.25 31.8618 44.5333 31.8618 47.1C31.8618 49.6667 32.7158 50.95 34.4238 50.95ZM44.2538 52.196C43.0218 52.196 42.0512 51.748 41.3418 50.852C40.6418 49.956 40.2918 48.7053 40.2918 47.1C40.2918 45.4947 40.6418 44.244 41.3418 43.348C42.0512 42.452 43.0218 42.004 44.2538 42.004C45.4765 42.004 46.4425 42.452 47.1518 43.348C47.8612 44.244 48.2158 45.4947 48.2158 47.1C48.2158 48.7053 47.8612 49.956 47.1518 50.852C46.4425 51.748 45.4765 52.196 44.2538 52.196ZM44.2538 50.95C45.9525 50.95 46.8018 49.6667 46.8018 47.1C46.8018 44.5333 45.9525 43.25 44.2538 43.25C42.5458 43.25 41.6918 44.5333 41.6918 47.1C41.6918 49.6667 42.5458 50.95 44.2538 50.95ZM54.0839 52.196C52.8519 52.196 51.8813 51.748 51.1719 50.852C50.4719 49.956 50.1219 48.7053 50.1219 47.1C50.1219 45.4947 50.4719 44.244 51.1719 43.348C51.8813 42.452 52.8519 42.004 54.0839 42.004C55.3066 42.004 56.2726 42.452 56.9819 43.348C57.6913 44.244 58.0459 45.4947 58.0459 47.1C58.0459 48.7053 57.6913 49.956 56.9819 50.852C56.2726 51.748 55.3066 52.196 54.0839 52.196ZM54.0839 50.95C55.7826 50.95 56.6319 49.6667 56.6319 47.1C56.6319 44.5333 55.7826 43.25 54.0839 43.25C52.3759 43.25 51.5219 44.5333 51.5219 47.1C51.5219 49.6667 52.3759 50.95 54.0839 50.95Z" fill="#6B7280"/>
<line x1="91" y1="48.2279" x2="704" y2="48.2279" stroke="#E5E7EB" stroke-width="0.544186" stroke-dasharray="2.72 2.72"/>
<path d="M8.39109 11.116C8.39109 11.872 8.12043 12.4927 7.57909 12.978C7.04709 13.454 6.30043 13.72 5.33909 13.776V14.7H4.49909V13.776C3.71509 13.7107 3.04776 13.5007 2.49709 13.146C1.94643 12.782 1.54509 12.306 1.29309 11.718L2.28709 11.074C2.72576 11.942 3.46309 12.446 4.49909 12.586V9.52L4.07909 9.422C2.38976 9.03 1.54509 8.218 1.54509 6.986C1.54509 6.26733 1.80643 5.67467 2.32909 5.208C2.86109 4.74133 3.58443 4.48 4.49909 4.424V3.5H5.33909V4.424C6.02043 4.48933 6.60843 4.66667 7.10309 4.956C7.59776 5.24533 7.95243 5.614 8.16709 6.062L7.20109 6.734C6.80909 6.09933 6.18843 5.726 5.33909 5.614V8.512L5.94109 8.652C7.57443 9.044 8.39109 9.86533 8.39109 11.116ZM4.45709 8.302L4.49909 8.316V5.6C3.98576 5.63733 3.58443 5.77733 3.29509 6.02C3.01509 6.26267 2.87509 6.57533 2.87509 6.958C2.87509 7.294 2.99643 7.56933 3.23909 7.784C3.48176 7.98933 3.88776 8.162 4.45709 8.302ZM5.33909 12.6C5.88043 12.5627 6.29576 12.4133 6.58509 12.152C6.88376 11.8907 7.03309 11.55 7.03309 11.13C7.03309 10.7753 6.91176 10.4907 6.66909 10.276C6.43576 10.052 6.04843 9.87933 5.50709 9.758L5.33909 9.716V12.6ZM11.591 12.754H16.533V14H9.64497V12.88L13.215 9.548C13.887 8.92267 14.3443 8.414 14.587 8.022C14.839 7.63 14.965 7.23333 14.965 6.832C14.965 6.328 14.811 5.936 14.503 5.656C14.2043 5.376 13.7843 5.236 13.243 5.236C12.1416 5.236 11.2736 5.824 10.639 7L9.60297 6.3C10.387 4.76933 11.591 4.004 13.215 4.004C14.167 4.004 14.9276 4.26533 15.497 4.788C16.0663 5.30133 16.351 5.97333 16.351 6.804C16.351 7.32667 16.211 7.84 15.931 8.344C15.651 8.848 15.1796 9.408 14.517 10.024L11.591 12.754ZM22.1054 14.196C20.8734 14.196 19.9027 13.748 19.1934 12.852C18.4934 11.956 18.1434 10.7053 18.1434 9.1C18.1434 7.49467 18.4934 6.244 19.1934 5.348C19.9027 4.452 20.8734 4.004 22.1054 4.004C23.3281 4.004 24.2941 4.452 25.0034 5.348C25.7127 6.244 26.0674 7.49467 26.0674 9.1C26.0674 10.7053 25.7127 11.956 25.0034 12.852C24.2941 13.748 23.3281 14.196 22.1054 14.196ZM22.1054 12.95C23.8041 12.95 24.6534 11.6667 24.6534 9.1C24.6534 6.53333 23.8041 5.25 22.1054 5.25C20.3974 5.25 19.5434 6.53333 19.5434 9.1C19.5434 11.6667 20.3974 12.95 22.1054 12.95ZM27.5001 16.1L28.1861 12.264H29.5441L28.5361 16.1H27.5001ZM34.4238 14.196C33.1918 14.196 32.2211 13.748 31.5118 12.852C30.8118 11.956 30.4618 10.7053 30.4618 9.1C30.4618 7.49467 30.8118 6.244 31.5118 5.348C32.2211 4.452 33.1918 4.004 34.4238 4.004C35.6464 4.004 36.6124 4.452 37.3218 5.348C38.0311 6.244 38.3858 7.49467 38.3858 9.1C38.3858 10.7053 38.0311 11.956 37.3218 12.852C36.6124 13.748 35.6464 14.196 34.4238 14.196ZM34.4238 12.95C36.1224 12.95 36.9718 11.6667 36.9718 9.1C36.9718 6.53333 36.1224 5.25 34.4238 5.25C32.7158 5.25 31.8618 6.53333 31.8618 9.1C31.8618 11.6667 32.7158 12.95 34.4238 12.95ZM44.2538 14.196C43.0218 14.196 42.0512 13.748 41.3418 12.852C40.6418 11.956 40.2918 10.7053 40.2918 9.1C40.2918 7.49467 40.6418 6.244 41.3418 5.348C42.0512 4.452 43.0218 4.004 44.2538 4.004C45.4765 4.004 46.4425 4.452 47.1518 5.348C47.8612 6.244 48.2158 7.49467 48.2158 9.1C48.2158 10.7053 47.8612 11.956 47.1518 12.852C46.4425 13.748 45.4765 14.196 44.2538 14.196ZM44.2538 12.95C45.9525 12.95 46.8018 11.6667 46.8018 9.1C46.8018 6.53333 45.9525 5.25 44.2538 5.25C42.5458 5.25 41.6918 6.53333 41.6918 9.1C41.6918 11.6667 42.5458 12.95 44.2538 12.95ZM54.0839 14.196C52.8519 14.196 51.8813 13.748 51.1719 12.852C50.4719 11.956 50.1219 10.7053 50.1219 9.1C50.1219 7.49467 50.4719 6.244 51.1719 5.348C51.8813 4.452 52.8519 4.004 54.0839 4.004C55.3066 4.004 56.2726 4.452 56.9819 5.348C57.6913 6.244 58.0459 7.49467 58.0459 9.1C58.0459 10.7053 57.6913 11.956 56.9819 12.852C56.2726 13.748 55.3066 14.196 54.0839 14.196ZM54.0839 12.95C55.7826 12.95 56.6319 11.6667 56.6319 9.1C56.6319 6.53333 55.7826 5.25 54.0839 5.25C52.3759 5.25 51.5219 6.53333 51.5219 9.1C51.5219 11.6667 52.3759 12.95 54.0839 12.95Z" fill="#6B7280"/>
<line x1="91" y1="10.2279" x2="704" y2="10.2279" stroke="#E5E7EB" stroke-width="0.544186" stroke-dasharray="2.72 2.72"/>
<path d="M69 144.653V100.4H175.425V71.7608H287.17V118.41H390.934V53.0168H502.68V74.4223H597.575V26.3008H704" stroke="#FF00FF" stroke-opacity="0.8" stroke-width="2.17674" stroke-linecap="round" stroke-linejoin="round"/>
<path d="M83.444 197.196C82.1093 197.196 81.0687 196.739 80.322 195.824L81.176 194.886C81.7547 195.567 82.492 195.908 83.388 195.908C84.0787 195.908 84.6153 195.693 84.998 195.264C85.39 194.835 85.586 194.214 85.586 193.402V187.2H86.958V193.5C86.958 194.639 86.6407 195.539 86.006 196.202C85.3807 196.865 84.5267 197.196 83.444 197.196ZM94.8528 189.902H96.1688V197H94.8528V195.74C94.6475 196.188 94.3115 196.543 93.8448 196.804C93.3875 197.065 92.8695 197.196 92.2908 197.196C91.3201 197.196 90.5175 196.851 89.8828 196.16C89.2481 195.46 88.9308 194.559 88.9308 193.458C88.9308 192.357 89.2481 191.456 89.8828 190.756C90.5175 190.056 91.3201 189.706 92.2908 189.706C92.8695 189.706 93.3875 189.837 93.8448 190.098C94.3115 190.359 94.6475 190.714 94.8528 191.162V189.902ZM90.9328 195.278C91.3621 195.745 91.9221 195.978 92.6128 195.978C93.3035 195.978 93.8588 195.745 94.2788 195.278C94.6988 194.802 94.9088 194.195 94.9088 193.458C94.9088 192.711 94.6988 192.105 94.2788 191.638C93.8588 191.162 93.3035 190.924 92.6128 190.924C91.9221 190.924 91.3621 191.162 90.9328 191.638C90.5128 192.105 90.3028 192.711 90.3028 193.458C90.3028 194.195 90.5128 194.802 90.9328 195.278ZM102.319 189.706C103.112 189.706 103.728 189.944 104.167 190.42C104.615 190.896 104.839 191.568 104.839 192.436V197H103.523V192.758C103.523 192.123 103.397 191.661 103.145 191.372C102.893 191.073 102.501 190.924 101.969 190.924C101.362 190.924 100.863 191.097 100.471 191.442C100.088 191.778 99.897 192.235 99.897 192.814V197H98.581V189.902H99.897V191.064C100.102 190.635 100.415 190.303 100.835 190.07C101.264 189.827 101.759 189.706 102.319 189.706ZM111.737 195.754H116.679V197H109.791V195.88L113.361 192.548C114.033 191.923 114.491 191.414 114.733 191.022C114.985 190.63 115.111 190.233 115.111 189.832C115.111 189.328 114.957 188.936 114.649 188.656C114.351 188.376 113.931 188.236 113.389 188.236C112.288 188.236 111.42 188.824 110.785 190L109.749 189.3C110.533 187.769 111.737 187.004 113.361 187.004C114.313 187.004 115.074 187.265 115.643 187.788C116.213 188.301 116.497 188.973 116.497 189.804C116.497 190.327 116.357 190.84 116.077 191.344C115.797 191.848 115.326 192.408 114.663 193.024L111.737 195.754ZM120.809 187.2H121.929V197H120.585V188.642L118.037 189.944V188.628L120.809 187.2Z" fill="#6B7280"/>
<path d="M176.112 197.196C174.777 197.196 173.737 196.739 172.99 195.824L173.844 194.886C174.423 195.567 175.16 195.908 176.056 195.908C176.747 195.908 177.283 195.693 177.666 195.264C178.058 194.835 178.254 194.214 178.254 193.402V187.2H179.626V193.5C179.626 194.639 179.309 195.539 178.674 196.202C178.049 196.865 177.195 197.196 176.112 197.196ZM187.521 189.902H188.837V197H187.521V195.74C187.315 196.188 186.979 196.543 186.513 196.804C186.055 197.065 185.537 197.196 184.959 197.196C183.988 197.196 183.185 196.851 182.551 196.16C181.916 195.46 181.599 194.559 181.599 193.458C181.599 192.357 181.916 191.456 182.551 190.756C183.185 190.056 183.988 189.706 184.959 189.706C185.537 189.706 186.055 189.837 186.513 190.098C186.979 190.359 187.315 190.714 187.521 191.162V189.902ZM183.601 195.278C184.03 195.745 184.59 195.978 185.281 195.978C185.971 195.978 186.527 195.745 186.947 195.278C187.367 194.802 187.577 194.195 187.577 193.458C187.577 192.711 187.367 192.105 186.947 191.638C186.527 191.162 185.971 190.924 185.281 190.924C184.59 190.924 184.03 191.162 183.601 191.638C183.181 192.105 182.971 192.711 182.971 193.458C182.971 194.195 183.181 194.802 183.601 195.278ZM194.987 189.706C195.78 189.706 196.396 189.944 196.835 190.42C197.283 190.896 197.507 191.568 197.507 192.436V197H196.191V192.758C196.191 192.123 196.065 191.661 195.813 191.372C195.561 191.073 195.169 190.924 194.637 190.924C194.03 190.924 193.531 191.097 193.139 191.442C192.756 191.778 192.565 192.235 192.565 192.814V197H191.249V189.902H192.565V191.064C192.77 190.635 193.083 190.303 193.503 190.07C193.932 189.827 194.427 189.706 194.987 189.706ZM204.405 195.754H209.347V197H202.459V195.88L206.029 192.548C206.701 191.923 207.159 191.414 207.401 191.022C207.653 190.63 207.779 190.233 207.779 189.832C207.779 189.328 207.625 188.936 207.317 188.656C207.019 188.376 206.599 188.236 206.057 188.236C204.956 188.236 204.088 188.824 203.453 190L202.417 189.3C203.201 187.769 204.405 187.004 206.029 187.004C206.981 187.004 207.742 187.265 208.311 187.788C208.881 188.301 209.165 188.973 209.165 189.804C209.165 190.327 209.025 190.84 208.745 191.344C208.465 191.848 207.994 192.408 207.331 193.024L204.405 195.754ZM212.718 195.754H217.66V197H210.772V195.88L214.342 192.548C215.014 191.923 215.471 191.414 215.714 191.022C215.966 190.63 216.092 190.233 216.092 189.832C216.092 189.328 215.938 188.936 215.63 188.656C215.331 188.376 214.911 188.236 214.37 188.236C213.269 188.236 212.401 188.824 211.766 190L210.73 189.3C211.514 187.769 212.718 187.004 214.342 187.004C215.294 187.004 216.055 187.265 216.624 187.788C217.193 188.301 217.478 188.973 217.478 189.804C217.478 190.327 217.338 190.84 217.058 191.344C216.778 191.848 216.307 192.408 215.644 193.024L212.718 195.754Z" fill="#6B7280"/>
<path d="M280.776 197.196C279.441 197.196 278.401 196.739 277.654 195.824L278.508 194.886C279.087 195.567 279.824 195.908 280.72 195.908C281.411 195.908 281.947 195.693 282.33 195.264C282.722 194.835 282.918 194.214 282.918 193.402V187.2H284.29V193.5C284.29 194.639 283.973 195.539 283.338 196.202C282.713 196.865 281.859 197.196 280.776 197.196ZM292.185 189.902H293.501V197H292.185V195.74C291.979 196.188 291.643 196.543 291.177 196.804C290.719 197.065 290.201 197.196 289.623 197.196C288.652 197.196 287.849 196.851 287.215 196.16C286.58 195.46 286.263 194.559 286.263 193.458C286.263 192.357 286.58 191.456 287.215 190.756C287.849 190.056 288.652 189.706 289.623 189.706C290.201 189.706 290.719 189.837 291.177 190.098C291.643 190.359 291.979 190.714 292.185 191.162V189.902ZM288.265 195.278C288.694 195.745 289.254 195.978 289.945 195.978C290.635 195.978 291.191 195.745 291.611 195.278C292.031 194.802 292.241 194.195 292.241 193.458C292.241 192.711 292.031 192.105 291.611 191.638C291.191 191.162 290.635 190.924 289.945 190.924C289.254 190.924 288.694 191.162 288.265 191.638C287.845 192.105 287.635 192.711 287.635 193.458C287.635 194.195 287.845 194.802 288.265 195.278ZM299.651 189.706C300.444 189.706 301.06 189.944 301.499 190.42C301.947 190.896 302.171 191.568 302.171 192.436V197H300.855V192.758C300.855 192.123 300.729 191.661 300.477 191.372C300.225 191.073 299.833 190.924 299.301 190.924C298.694 190.924 298.195 191.097 297.803 191.442C297.42 191.778 297.229 192.235 297.229 192.814V197H295.913V189.902H297.229V191.064C297.434 190.635 297.747 190.303 298.167 190.07C298.596 189.827 299.091 189.706 299.651 189.706ZM309.069 195.754H314.011V197H307.123V195.88L310.693 192.548C311.365 191.923 311.823 191.414 312.065 191.022C312.317 190.63 312.443 190.233 312.443 189.832C312.443 189.328 312.289 188.936 311.981 188.656C311.683 188.376 311.263 188.236 310.721 188.236C309.62 188.236 308.752 188.824 308.117 190L307.081 189.3C307.865 187.769 309.069 187.004 310.693 187.004C311.645 187.004 312.406 187.265 312.975 187.788C313.545 188.301 313.829 188.973 313.829 189.804C313.829 190.327 313.689 190.84 313.409 191.344C313.129 191.848 312.658 192.408 311.995 193.024L309.069 195.754ZM318.827 191.372C319.854 191.419 320.652 191.685 321.221 192.17C321.791 192.646 322.075 193.313 322.075 194.172C322.075 195.087 321.753 195.819 321.109 196.37C320.475 196.921 319.607 197.196 318.505 197.196C317.059 197.196 315.892 196.711 315.005 195.74L315.817 194.844C316.555 195.591 317.446 195.964 318.491 195.964C319.201 195.964 319.747 195.801 320.129 195.474C320.512 195.147 320.703 194.699 320.703 194.13C320.703 193.542 320.475 193.103 320.017 192.814C319.56 192.525 318.813 192.38 317.777 192.38H317.231V191.456L320.101 188.418H315.523V187.2H321.711V188.32L318.827 191.372Z" fill="#6B7280"/>
<path d="M374.444 197.196C373.109 197.196 372.069 196.739 371.322 195.824L372.176 194.886C372.755 195.567 373.492 195.908 374.388 195.908C375.079 195.908 375.615 195.693 375.998 195.264C376.39 194.835 376.586 194.214 376.586 193.402V187.2H377.958V193.5C377.958 194.639 377.641 195.539 377.006 196.202C376.381 196.865 375.527 197.196 374.444 197.196ZM385.853 189.902H387.169V197H385.853V195.74C385.647 196.188 385.311 196.543 384.845 196.804C384.387 197.065 383.869 197.196 383.291 197.196C382.32 197.196 381.517 196.851 380.883 196.16C380.248 195.46 379.931 194.559 379.931 193.458C379.931 192.357 380.248 191.456 380.883 190.756C381.517 190.056 382.32 189.706 383.291 189.706C383.869 189.706 384.387 189.837 384.845 190.098C385.311 190.359 385.647 190.714 385.853 191.162V189.902ZM381.933 195.278C382.362 195.745 382.922 195.978 383.613 195.978C384.303 195.978 384.859 195.745 385.279 195.278C385.699 194.802 385.909 194.195 385.909 193.458C385.909 192.711 385.699 192.105 385.279 191.638C384.859 191.162 384.303 190.924 383.613 190.924C382.922 190.924 382.362 191.162 381.933 191.638C381.513 192.105 381.303 192.711 381.303 193.458C381.303 194.195 381.513 194.802 381.933 195.278ZM393.319 189.706C394.112 189.706 394.728 189.944 395.167 190.42C395.615 190.896 395.839 191.568 395.839 192.436V197H394.523V192.758C394.523 192.123 394.397 191.661 394.145 191.372C393.893 191.073 393.501 190.924 392.969 190.924C392.362 190.924 391.863 191.097 391.471 191.442C391.088 191.778 390.897 192.235 390.897 192.814V197H389.581V189.902H390.897V191.064C391.102 190.635 391.415 190.303 391.835 190.07C392.264 189.827 392.759 189.706 393.319 189.706ZM402.737 195.754H407.679V197H400.791V195.88L404.361 192.548C405.033 191.923 405.491 191.414 405.733 191.022C405.985 190.63 406.111 190.233 406.111 189.832C406.111 189.328 405.957 188.936 405.649 188.656C405.351 188.376 404.931 188.236 404.389 188.236C403.288 188.236 402.42 188.824 401.785 190L400.749 189.3C401.533 187.769 402.737 187.004 404.361 187.004C405.313 187.004 406.074 187.265 406.643 187.788C407.213 188.301 407.497 188.973 407.497 189.804C407.497 190.327 407.357 190.84 407.077 191.344C406.797 191.848 406.326 192.408 405.663 193.024L402.737 195.754ZM416.657 193.724V194.872H415.229V197H413.955V194.872H408.761V193.752L413.535 187.2H415.229V193.724H416.657ZM410.203 193.724H413.955V188.586L410.203 193.724Z" fill="#6B7280"/>
<path d="M469.112 197.196C467.777 197.196 466.737 196.739 465.99 195.824L466.844 194.886C467.423 195.567 468.16 195.908 469.056 195.908C469.747 195.908 470.283 195.693 470.666 195.264C471.058 194.835 471.254 194.214 471.254 193.402V187.2H472.626V193.5C472.626 194.639 472.309 195.539 471.674 196.202C471.049 196.865 470.195 197.196 469.112 197.196ZM480.521 189.902H481.837V197H480.521V195.74C480.315 196.188 479.979 196.543 479.513 196.804C479.055 197.065 478.537 197.196 477.959 197.196C476.988 197.196 476.185 196.851 475.551 196.16C474.916 195.46 474.599 194.559 474.599 193.458C474.599 192.357 474.916 191.456 475.551 190.756C476.185 190.056 476.988 189.706 477.959 189.706C478.537 189.706 479.055 189.837 479.513 190.098C479.979 190.359 480.315 190.714 480.521 191.162V189.902ZM476.601 195.278C477.03 195.745 477.59 195.978 478.281 195.978C478.971 195.978 479.527 195.745 479.947 195.278C480.367 194.802 480.577 194.195 480.577 193.458C480.577 192.711 480.367 192.105 479.947 191.638C479.527 191.162 478.971 190.924 478.281 190.924C477.59 190.924 477.03 191.162 476.601 191.638C476.181 192.105 475.971 192.711 475.971 193.458C475.971 194.195 476.181 194.802 476.601 195.278ZM487.987 189.706C488.78 189.706 489.396 189.944 489.835 190.42C490.283 190.896 490.507 191.568 490.507 192.436V197H489.191V192.758C489.191 192.123 489.065 191.661 488.813 191.372C488.561 191.073 488.169 190.924 487.637 190.924C487.03 190.924 486.531 191.097 486.139 191.442C485.756 191.778 485.565 192.235 485.565 192.814V197H484.249V189.902H485.565V191.064C485.77 190.635 486.083 190.303 486.503 190.07C486.932 189.827 487.427 189.706 487.987 189.706ZM497.405 195.754H502.347V197H495.459V195.88L499.029 192.548C499.701 191.923 500.159 191.414 500.401 191.022C500.653 190.63 500.779 190.233 500.779 189.832C500.779 189.328 500.625 188.936 500.317 188.656C500.019 188.376 499.599 188.236 499.057 188.236C497.956 188.236 497.088 188.824 496.453 190L495.417 189.3C496.201 187.769 497.405 187.004 499.029 187.004C499.981 187.004 500.742 187.265 501.311 187.788C501.881 188.301 502.165 188.973 502.165 189.804C502.165 190.327 502.025 190.84 501.745 191.344C501.465 191.848 500.994 192.408 500.331 193.024L497.405 195.754ZM507.373 190.896C508.344 190.896 509.128 191.171 509.725 191.722C510.332 192.263 510.635 193.005 510.635 193.948C510.635 194.928 510.304 195.717 509.641 196.314C508.988 196.902 508.106 197.196 506.995 197.196C505.642 197.196 504.527 196.72 503.649 195.768L504.461 194.9C505.199 195.609 506.034 195.964 506.967 195.964C507.695 195.964 508.26 195.787 508.661 195.432C509.072 195.068 509.277 194.578 509.277 193.962C509.277 193.374 509.095 192.917 508.731 192.59C508.377 192.254 507.877 192.086 507.233 192.086C506.515 192.086 505.852 192.305 505.245 192.744L504.167 192.128V187.2H510.075V188.432H505.455V191.414C506.006 191.069 506.645 190.896 507.373 190.896Z" fill="#6B7280"/>
<path d="M573.776 197.196C572.441 197.196 571.401 196.739 570.654 195.824L571.508 194.886C572.087 195.567 572.824 195.908 573.72 195.908C574.411 195.908 574.947 195.693 575.33 195.264C575.722 194.835 575.918 194.214 575.918 193.402V187.2H577.29V193.5C577.29 194.639 576.973 195.539 576.338 196.202C575.713 196.865 574.859 197.196 573.776 197.196ZM585.185 189.902H586.501V197H585.185V195.74C584.979 196.188 584.643 196.543 584.177 196.804C583.719 197.065 583.201 197.196 582.623 197.196C581.652 197.196 580.849 196.851 580.215 196.16C579.58 195.46 579.263 194.559 579.263 193.458C579.263 192.357 579.58 191.456 580.215 190.756C580.849 190.056 581.652 189.706 582.623 189.706C583.201 189.706 583.719 189.837 584.177 190.098C584.643 190.359 584.979 190.714 585.185 191.162V189.902ZM581.265 195.278C581.694 195.745 582.254 195.978 582.945 195.978C583.635 195.978 584.191 195.745 584.611 195.278C585.031 194.802 585.241 194.195 585.241 193.458C585.241 192.711 585.031 192.105 584.611 191.638C584.191 191.162 583.635 190.924 582.945 190.924C582.254 190.924 581.694 191.162 581.265 191.638C580.845 192.105 580.635 192.711 580.635 193.458C580.635 194.195 580.845 194.802 581.265 195.278ZM592.651 189.706C593.444 189.706 594.06 189.944 594.499 190.42C594.947 190.896 595.171 191.568 595.171 192.436V197H593.855V192.758C593.855 192.123 593.729 191.661 593.477 191.372C593.225 191.073 592.833 190.924 592.301 190.924C591.694 190.924 591.195 191.097 590.803 191.442C590.42 191.778 590.229 192.235 590.229 192.814V197H588.913V189.902H590.229V191.064C590.434 190.635 590.747 190.303 591.167 190.07C591.596 189.827 592.091 189.706 592.651 189.706ZM602.069 195.754H607.011V197H600.123V195.88L603.693 192.548C604.365 191.923 604.823 191.414 605.065 191.022C605.317 190.63 605.443 190.233 605.443 189.832C605.443 189.328 605.289 188.936 604.981 188.656C604.683 188.376 604.263 188.236 603.721 188.236C602.62 188.236 601.752 188.824 601.117 190L600.081 189.3C600.865 187.769 602.069 187.004 603.693 187.004C604.645 187.004 605.406 187.265 605.975 187.788C606.545 188.301 606.829 188.973 606.829 189.804C606.829 190.327 606.689 190.84 606.409 191.344C606.129 191.848 605.658 192.408 604.995 193.024L602.069 195.754ZM612.277 190.378C613.22 190.378 614.013 190.695 614.657 191.33C615.31 191.955 615.637 192.767 615.637 193.766C615.637 194.783 615.292 195.609 614.601 196.244C613.91 196.879 613.028 197.196 611.955 197.196C610.9 197.196 610.032 196.879 609.351 196.244C608.679 195.609 608.343 194.76 608.343 193.696C608.343 192.464 608.828 191.213 609.799 189.944L611.885 187.2H613.509L610.611 190.854C611.096 190.537 611.652 190.378 612.277 190.378ZM611.983 195.978C612.692 195.978 613.248 195.782 613.649 195.39C614.06 194.989 614.265 194.447 614.265 193.766C614.265 193.085 614.06 192.548 613.649 192.156C613.248 191.755 612.692 191.554 611.983 191.554C611.283 191.554 610.728 191.755 610.317 192.156C609.916 192.548 609.715 193.085 609.715 193.766C609.715 194.447 609.916 194.989 610.317 195.39C610.728 195.782 611.283 195.978 611.983 195.978Z" fill="#6B7280"/>
<path d="M668.444 197.196C667.109 197.196 666.069 196.739 665.322 195.824L666.176 194.886C666.755 195.567 667.492 195.908 668.388 195.908C669.079 195.908 669.615 195.693 669.998 195.264C670.39 194.835 670.586 194.214 670.586 193.402V187.2H671.958V193.5C671.958 194.639 671.641 195.539 671.006 196.202C670.381 196.865 669.527 197.196 668.444 197.196ZM679.853 189.902H681.169V197H679.853V195.74C679.647 196.188 679.311 196.543 678.845 196.804C678.387 197.065 677.869 197.196 677.291 197.196C676.32 197.196 675.517 196.851 674.883 196.16C674.248 195.46 673.931 194.559 673.931 193.458C673.931 192.357 674.248 191.456 674.883 190.756C675.517 190.056 676.32 189.706 677.291 189.706C677.869 189.706 678.387 189.837 678.845 190.098C679.311 190.359 679.647 190.714 679.853 191.162V189.902ZM675.933 195.278C676.362 195.745 676.922 195.978 677.613 195.978C678.303 195.978 678.859 195.745 679.279 195.278C679.699 194.802 679.909 194.195 679.909 193.458C679.909 192.711 679.699 192.105 679.279 191.638C678.859 191.162 678.303 190.924 677.613 190.924C676.922 190.924 676.362 191.162 675.933 191.638C675.513 192.105 675.303 192.711 675.303 193.458C675.303 194.195 675.513 194.802 675.933 195.278ZM687.319 189.706C688.112 189.706 688.728 189.944 689.167 190.42C689.615 190.896 689.839 191.568 689.839 192.436V197H688.523V192.758C688.523 192.123 688.397 191.661 688.145 191.372C687.893 191.073 687.501 190.924 686.969 190.924C686.362 190.924 685.863 191.097 685.471 191.442C685.088 191.778 684.897 192.235 684.897 192.814V197H683.581V189.902H684.897V191.064C685.102 190.635 685.415 190.303 685.835 190.07C686.264 189.827 686.759 189.706 687.319 189.706ZM696.737 195.754H701.679V197H694.791V195.88L698.361 192.548C699.033 191.923 699.491 191.414 699.733 191.022C699.985 190.63 700.111 190.233 700.111 189.832C700.111 189.328 699.957 188.936 699.649 188.656C699.351 188.376 698.931 188.236 698.389 188.236C697.288 188.236 696.42 188.824 695.785 190L694.749 189.3C695.533 187.769 696.737 187.004 698.361 187.004C699.313 187.004 700.074 187.265 700.643 187.788C701.213 188.301 701.497 188.973 701.497 189.804C701.497 190.327 701.357 190.84 701.077 191.344C700.797 191.848 700.326 192.408 699.663 193.024L696.737 195.754ZM702.715 187.2H709.379V188.362L705.221 197H703.765L707.937 188.432H702.715V187.2Z" fill="#6B7280"/>
</svg>
