<svg width="624" height="492" viewBox="0 0 624 492" fill="none" xmlns="http://www.w3.org/2000/svg">
<path d="M27.1713 121.632H31.0353V123H24.9993V121.824L28.0233 119.004C28.5393 118.512 28.8993 118.128 29.0913 117.828C29.2953 117.528 29.3913 117.24 29.3913 116.94C29.3913 116.232 28.9113 115.8 28.1313 115.8C27.3153 115.8 26.5953 116.268 26.1033 117.228L24.9272 116.484C25.5513 115.152 26.6793 114.432 28.1073 114.432C29.7993 114.432 30.9153 115.452 30.9153 116.88C30.9153 117.756 30.4953 118.548 29.4393 119.52L27.1713 121.632ZM34.3471 114.6H35.5951V123H34.1071V116.172L32.0311 117.204V115.776L34.3471 114.6ZM43.1156 120.528C43.1156 122.136 41.9036 123.168 39.9596 123.168C38.6996 123.168 37.6556 122.736 36.8996 121.908L37.7636 120.9C38.3756 121.512 39.0956 121.812 39.9356 121.812C41.0276 121.812 41.6036 121.296 41.6036 120.468C41.6036 119.592 40.9436 119.16 39.2756 119.16H38.8436V118.2L40.9916 115.932H37.3556V114.6H42.7676V115.812L40.5476 118.14C42.1796 118.272 43.1156 119.1 43.1156 120.528ZM50.3894 117.48C50.3894 118.524 49.9694 119.604 49.1294 120.72L47.4014 123H45.6374L47.9054 120.132C47.6174 120.264 47.2934 120.324 46.9334 120.324C45.2894 120.324 43.9814 119.136 43.9814 117.408C43.9814 115.668 45.3494 114.432 47.2094 114.432C49.0454 114.432 50.3894 115.62 50.3894 117.48ZM48.8894 117.408C48.8894 116.4 48.2414 115.764 47.1854 115.764C46.1294 115.764 45.4814 116.4 45.4814 117.408C45.4814 118.428 46.1294 119.052 47.1854 119.052C48.2414 119.052 48.8894 118.428 48.8894 117.408Z" fill="#111928"/>
<rect y="133" width="75.4286" height="327" fill="#FF00FF" fill-opacity="0.24"/>
<path d="M117.247 107.632H121.111V109H115.075V107.824L118.099 105.004C118.615 104.512 118.975 104.128 119.167 103.828C119.371 103.528 119.467 103.24 119.467 102.94C119.467 102.232 118.987 101.8 118.207 101.8C117.391 101.8 116.671 102.268 116.179 103.228L115.003 102.484C115.627 101.152 116.755 100.432 118.183 100.432C119.875 100.432 120.991 101.452 120.991 102.88C120.991 103.756 120.571 104.548 119.515 105.52L117.247 107.632ZM128.734 106.012V107.26H127.618V109H126.19V107.26H121.906V106.024L125.842 100.6H127.618V106.012H128.734ZM123.418 106.012H126.19V102.196L123.418 106.012ZM136.004 106.192C136.004 107.932 134.648 109.168 132.788 109.168C130.952 109.168 129.596 107.98 129.596 106.12C129.596 105.076 130.016 103.996 130.856 102.88L132.596 100.6H134.36L132.08 103.468C132.368 103.336 132.692 103.276 133.064 103.276C134.708 103.276 136.004 104.464 136.004 106.192ZM134.504 106.192C134.504 105.172 133.868 104.548 132.8 104.548C131.744 104.548 131.096 105.172 131.096 106.192C131.096 107.2 131.744 107.836 132.8 107.836C133.856 107.836 134.504 107.2 134.504 106.192ZM143.305 106.192C143.305 107.932 141.949 109.168 140.089 109.168C138.253 109.168 136.897 107.98 136.897 106.12C136.897 105.076 137.317 103.996 138.157 102.88L139.897 100.6H141.661L139.381 103.468C139.669 103.336 139.993 103.276 140.365 103.276C142.009 103.276 143.305 104.464 143.305 106.192ZM141.805 106.192C141.805 105.172 141.169 104.548 140.101 104.548C139.045 104.548 138.397 105.172 138.397 106.192C138.397 107.2 139.045 107.836 140.101 107.836C141.157 107.836 141.805 107.2 141.805 106.192Z" fill="#111928"/>
<rect x="91.4297" y="119" width="75.4286" height="341" fill="#FF00FF" fill-opacity="0.24"/>
<path d="M208.779 225.632H212.643V227H206.607V225.824L209.631 223.004C210.147 222.512 210.507 222.128 210.699 221.828C210.903 221.528 210.999 221.24 210.999 220.94C210.999 220.232 210.519 219.8 209.739 219.8C208.923 219.8 208.203 220.268 207.711 221.228L206.535 220.484C207.159 219.152 208.287 218.432 209.715 218.432C211.407 218.432 212.523 219.452 212.523 220.88C212.523 221.756 212.103 222.548 211.047 223.52L208.779 225.632ZM220.106 224.732C220.106 226.148 218.93 227.168 216.902 227.168C214.874 227.168 213.686 226.148 213.686 224.732C213.686 223.772 214.238 223.028 215.258 222.68C214.394 222.332 213.938 221.648 213.938 220.784C213.938 219.44 215.03 218.432 216.902 218.432C218.774 218.432 219.866 219.44 219.866 220.784C219.866 221.648 219.398 222.332 218.534 222.68C219.554 223.028 220.106 223.772 220.106 224.732ZM215.414 220.904C215.414 221.66 215.93 222.116 216.902 222.116C217.874 222.116 218.39 221.66 218.39 220.904C218.39 220.148 217.874 219.692 216.902 219.692C215.93 219.692 215.414 220.148 215.414 220.904ZM218.57 224.6C218.57 223.832 217.994 223.328 216.902 223.328C215.798 223.328 215.234 223.832 215.234 224.6C215.234 225.368 215.798 225.872 216.902 225.872C217.994 225.872 218.57 225.368 218.57 224.6ZM227.27 224.336C227.27 226.076 226.022 227.168 224.054 227.168C222.866 227.168 221.882 226.76 221.09 225.932L221.954 224.924C222.59 225.548 223.262 225.812 224.03 225.812C225.122 225.812 225.77 225.26 225.77 224.36C225.77 223.496 225.182 222.956 224.21 222.956C223.658 222.956 223.154 223.124 222.686 223.472L221.546 222.872V218.6H226.766V219.944H222.95V222.068C223.394 221.816 223.91 221.684 224.486 221.684C226.166 221.684 227.27 222.692 227.27 224.336ZM234.625 224.192C234.625 225.932 233.269 227.168 231.409 227.168C229.573 227.168 228.217 225.98 228.217 224.12C228.217 223.076 228.637 221.996 229.477 220.88L231.217 218.6H232.981L230.701 221.468C230.989 221.336 231.313 221.276 231.685 221.276C233.329 221.276 234.625 222.464 234.625 224.192ZM233.125 224.192C233.125 223.172 232.489 222.548 231.421 222.548C230.365 222.548 229.717 223.172 229.717 224.192C229.717 225.2 230.365 225.836 231.421 225.836C232.477 225.836 233.125 225.2 233.125 224.192Z" fill="#111928"/>
<rect x="182.855" y="237" width="75.4286" height="223" fill="#FF00FF" fill-opacity="0.24"/>
<path d="M299.822 212.277H303.686V213.645H297.65V212.469L300.674 209.649C301.19 209.157 301.55 208.773 301.742 208.473C301.946 208.173 302.042 207.885 302.042 207.585C302.042 206.877 301.562 206.445 300.782 206.445C299.966 206.445 299.246 206.913 298.754 207.873L297.578 207.129C298.202 205.797 299.33 205.077 300.758 205.077C302.45 205.077 303.566 206.097 303.566 207.525C303.566 208.401 303.146 209.193 302.09 210.165L299.822 212.277ZM310.621 211.173C310.621 212.781 309.409 213.813 307.465 213.813C306.205 213.813 305.161 213.381 304.405 212.553L305.269 211.545C305.881 212.157 306.601 212.457 307.441 212.457C308.533 212.457 309.109 211.941 309.109 211.113C309.109 210.237 308.449 209.805 306.781 209.805H306.349V208.845L308.497 206.577H304.861V205.245H310.273V206.457L308.053 208.785C309.685 208.917 310.621 209.745 310.621 211.173ZM318.039 210.837C318.039 212.577 316.683 213.813 314.823 213.813C312.987 213.813 311.631 212.625 311.631 210.765C311.631 209.721 312.051 208.641 312.891 207.525L314.631 205.245H316.395L314.115 208.113C314.403 207.981 314.727 207.921 315.099 207.921C316.743 207.921 318.039 209.109 318.039 210.837ZM316.539 210.837C316.539 209.817 315.903 209.193 314.835 209.193C313.779 209.193 313.131 209.817 313.131 210.837C313.131 211.845 313.779 212.481 314.835 212.481C315.891 212.481 316.539 211.845 316.539 210.837ZM319.16 209.445C319.16 206.673 320.48 205.077 322.616 205.077C324.752 205.077 326.072 206.673 326.072 209.445C326.072 212.217 324.752 213.813 322.616 213.813C320.48 213.813 319.16 212.217 319.16 209.445ZM324.524 209.445C324.524 207.441 323.888 206.445 322.616 206.445C321.344 206.445 320.708 207.441 320.708 209.445C320.708 211.449 321.344 212.445 322.616 212.445C323.888 212.445 324.524 211.449 324.524 209.445Z" fill="#111928"/>
<rect x="274.285" y="223.645" width="75.4286" height="236.357" fill="#FF00FF" fill-opacity="0.24"/>
<path d="M391.619 251.6H392.867V260H391.379V253.172L389.303 254.204V252.776L391.619 251.6ZM400.867 257.192C400.867 258.932 399.511 260.168 397.651 260.168C395.815 260.168 394.459 258.98 394.459 257.12C394.459 256.076 394.879 254.996 395.719 253.88L397.459 251.6H399.223L396.943 254.468C397.231 254.336 397.555 254.276 397.927 254.276C399.571 254.276 400.867 255.464 400.867 257.192ZM399.367 257.192C399.367 256.172 398.731 255.548 397.663 255.548C396.607 255.548 395.959 256.172 395.959 257.192C395.959 258.2 396.607 258.836 397.663 258.836C398.719 258.836 399.367 258.2 399.367 257.192ZM401.988 255.8C401.988 253.028 403.308 251.432 405.444 251.432C407.58 251.432 408.9 253.028 408.9 255.8C408.9 258.572 407.58 260.168 405.444 260.168C403.308 260.168 401.988 258.572 401.988 255.8ZM407.352 255.8C407.352 253.796 406.716 252.8 405.444 252.8C404.172 252.8 403.536 253.796 403.536 255.8C403.536 257.804 404.172 258.8 405.444 258.8C406.716 258.8 407.352 257.804 407.352 255.8ZM410.39 255.8C410.39 253.028 411.71 251.432 413.846 251.432C415.982 251.432 417.302 253.028 417.302 255.8C417.302 258.572 415.982 260.168 413.846 260.168C411.71 260.168 410.39 258.572 410.39 255.8ZM415.754 255.8C415.754 253.796 415.118 252.8 413.846 252.8C412.574 252.8 411.938 253.796 411.938 255.8C411.938 257.804 412.574 258.8 413.846 258.8C415.118 258.8 415.754 257.804 415.754 255.8Z" fill="#111928"/>
<rect x="365.715" y="270" width="75.4286" height="190" fill="#FF00FF" fill-opacity="0.24"/>
<path d="M482.972 40.6H484.22V49H482.732V42.172L480.656 43.204V41.776L482.972 40.6ZM492.545 46.012V47.26H491.429V49H490.001V47.26H485.717V46.024L489.653 40.6H491.429V46.012H492.545ZM487.229 46.012H490.001V42.196L487.229 46.012ZM493.494 44.8C493.494 42.028 494.814 40.432 496.95 40.432C499.086 40.432 500.406 42.028 500.406 44.8C500.406 47.572 499.086 49.168 496.95 49.168C494.814 49.168 493.494 47.572 493.494 44.8ZM498.858 44.8C498.858 42.796 498.222 41.8 496.95 41.8C495.678 41.8 495.042 42.796 495.042 44.8C495.042 46.804 495.678 47.8 496.95 47.8C498.222 47.8 498.858 46.804 498.858 44.8ZM501.896 44.8C501.896 42.028 503.216 40.432 505.352 40.432C507.488 40.432 508.808 42.028 508.808 44.8C508.808 47.572 507.488 49.168 505.352 49.168C503.216 49.168 501.896 47.572 501.896 44.8ZM507.26 44.8C507.26 42.796 506.624 41.8 505.352 41.8C504.08 41.8 503.444 42.796 503.444 44.8C503.444 46.804 504.08 47.8 505.352 47.8C506.624 47.8 507.26 46.804 507.26 44.8Z" fill="#111928"/>
<rect x="457.145" y="59" width="75.4286" height="401" fill="#FF00FF" fill-opacity="0.24"/>
<path d="M573.357 196.632H577.221V198H571.185V196.824L574.209 194.004C574.725 193.512 575.085 193.128 575.277 192.828C575.481 192.528 575.577 192.24 575.577 191.94C575.577 191.232 575.097 190.8 574.317 190.8C573.501 190.8 572.781 191.268 572.289 192.228L571.113 191.484C571.737 190.152 572.865 189.432 574.293 189.432C575.985 189.432 577.101 190.452 577.101 191.88C577.101 192.756 576.681 193.548 575.625 194.52L573.357 196.632ZM584.843 195.012V196.26H583.727V198H582.299V196.26H578.015V195.024L581.951 189.6H583.727V195.012H584.843ZM579.527 195.012H582.299V191.196L579.527 195.012ZM585.793 193.8C585.793 191.028 587.113 189.432 589.249 189.432C591.385 189.432 592.705 191.028 592.705 193.8C592.705 196.572 591.385 198.168 589.249 198.168C587.113 198.168 585.793 196.572 585.793 193.8ZM591.157 193.8C591.157 191.796 590.521 190.8 589.249 190.8C587.977 190.8 587.341 191.796 587.341 193.8C587.341 195.804 587.977 196.8 589.249 196.8C590.521 196.8 591.157 195.804 591.157 193.8ZM594.195 193.8C594.195 191.028 595.515 189.432 597.651 189.432C599.787 189.432 601.107 191.028 601.107 193.8C601.107 196.572 599.787 198.168 597.651 198.168C595.515 198.168 594.195 196.572 594.195 193.8ZM599.559 193.8C599.559 191.796 598.923 190.8 597.651 190.8C596.379 190.8 595.743 191.796 595.743 193.8C595.743 195.804 596.379 196.8 597.651 196.8C598.923 196.8 599.559 195.804 599.559 193.8Z" fill="#111928"/>
<rect x="548.57" y="208" width="75.4286" height="252" fill="#FF00FF" fill-opacity="0.24"/>
<path d="M32.8102 475.7H34.1122V485.5H32.9222V477.59L29.5202 482.952H28.4982L25.0962 477.59V485.5H23.9062V475.7H25.2082L29.0162 481.678L32.8102 475.7ZM36.3175 481.958C36.2895 479.956 37.8155 478.178 39.9575 478.22C42.0995 478.178 43.6255 479.956 43.5975 481.958C43.6255 483.96 42.0995 485.738 39.9575 485.696C37.8155 485.738 36.2895 483.96 36.3175 481.958ZM42.3655 481.958C42.3655 481.188 42.1415 480.544 41.6935 480.054C41.2595 479.564 40.6715 479.312 39.9575 479.312C39.2435 479.312 38.6555 479.564 38.2075 480.054C37.7735 480.544 37.5495 481.188 37.5495 481.958C37.5495 482.728 37.7735 483.372 38.2075 483.862C38.6555 484.352 39.2435 484.604 39.9575 484.604C40.6715 484.604 41.2595 484.352 41.6935 483.862C42.1415 483.372 42.3655 482.728 42.3655 481.958ZM51.7725 480.964V485.5H50.5965V481.244C50.5965 479.9 50.0925 479.312 48.9725 479.312C47.6985 479.312 46.7885 480.096 46.7885 481.286V485.5H45.6125V478.416H46.7885V479.62C47.1805 478.724 48.0905 478.22 49.2525 478.22C50.8625 478.22 51.7725 479.214 51.7725 480.964Z" fill="#6B7280"/>
<path d="M120.651 485.5V476.848H117.375V475.7H125.159V476.848H121.883V485.5H120.651ZM125.664 482.854V478.416H126.84V482.784C126.84 483.96 127.526 484.604 128.716 484.604C129.906 484.604 130.592 483.96 130.592 482.784V478.416H131.768V482.854C131.768 484.534 130.55 485.696 128.716 485.696C126.882 485.696 125.664 484.534 125.664 482.854ZM140.514 482.322H134.844C134.97 483.736 135.922 484.604 137.308 484.604C138.218 484.604 138.974 484.24 139.562 483.498L140.36 484.17C139.674 485.136 138.582 485.696 137.28 485.696C135.138 485.696 133.64 484.17 133.64 481.972C133.64 479.802 135.096 478.22 137.182 478.22C139.156 478.22 140.556 479.634 140.556 481.692C140.556 481.902 140.542 482.112 140.514 482.322ZM134.872 481.37H139.352C139.24 480.068 138.414 479.312 137.182 479.312C135.936 479.312 135.082 480.096 134.872 481.37Z" fill="#6B7280"/>
<path d="M217.826 475.7H219.044L216.006 485.5H214.76L212.142 477.296L209.524 485.5H208.278L205.24 475.7H206.458L208.936 483.792L211.526 475.7H212.758L215.348 483.792L217.826 475.7ZM226.368 482.322H220.698C220.824 483.736 221.776 484.604 223.162 484.604C224.072 484.604 224.828 484.24 225.416 483.498L226.214 484.17C225.528 485.136 224.436 485.696 223.134 485.696C220.992 485.696 219.494 484.17 219.494 481.972C219.494 479.802 220.95 478.22 223.036 478.22C225.01 478.22 226.41 479.634 226.41 481.692C226.41 481.902 226.396 482.112 226.368 482.322ZM220.726 481.37H225.206C225.094 480.068 224.268 479.312 223.036 479.312C221.79 479.312 220.936 480.096 220.726 481.37ZM233.881 475.252H235.057V485.5H233.881V484.198C233.447 485.108 232.439 485.696 231.249 485.696C229.317 485.696 227.889 484.142 227.889 481.958C227.889 479.774 229.317 478.22 231.249 478.22C232.439 478.22 233.447 478.808 233.881 479.718V475.252ZM233.937 481.958C233.937 481.188 233.713 480.544 233.265 480.054C232.831 479.564 232.243 479.312 231.529 479.312C230.815 479.312 230.227 479.564 229.779 480.054C229.345 480.544 229.121 481.188 229.121 481.958C229.121 482.728 229.345 483.372 229.779 483.862C230.227 484.352 230.815 484.604 231.529 484.604C232.243 484.604 232.831 484.352 233.265 483.862C233.713 483.372 233.937 482.728 233.937 481.958Z" fill="#6B7280"/>
<path d="M302.898 485.5V476.848H299.622V475.7H307.406V476.848H304.13V485.5H302.898ZM315.195 480.964V485.5H314.019V481.244C314.019 479.9 313.515 479.312 312.395 479.312C311.121 479.312 310.211 480.096 310.211 481.286V485.5H309.035V475.252H310.211V479.62C310.603 478.724 311.513 478.22 312.675 478.22C314.285 478.22 315.195 479.214 315.195 480.964ZM317.522 482.854V478.416H318.698V482.784C318.698 483.96 319.384 484.604 320.574 484.604C321.764 484.604 322.45 483.96 322.45 482.784V478.416H323.626V482.854C323.626 484.534 322.408 485.696 320.574 485.696C318.74 485.696 317.522 484.534 317.522 482.854Z" fill="#6B7280"/>
<path d="M402.404 476.834H396.958V480.04H402.124V481.188H396.958V485.5H395.726V475.7H402.404V476.834ZM408.447 478.402V479.438C408.237 479.41 408.041 479.396 407.831 479.396C406.445 479.396 405.647 480.208 405.647 481.874V485.5H404.471V478.416H405.647V479.746C405.969 478.836 406.753 478.304 407.803 478.304C408.041 478.304 408.265 478.332 408.447 478.402ZM409.921 476.12C409.921 475.658 410.271 475.308 410.733 475.308C411.195 475.308 411.545 475.658 411.545 476.12C411.545 476.582 411.195 476.932 410.733 476.932C410.271 476.932 409.921 476.582 409.921 476.12ZM410.145 485.5V478.416H411.321V485.5H410.145Z" fill="#6B7280"/>
<path d="M483.575 483.414L484.569 482.84C485.087 483.96 486.151 484.576 487.551 484.576C489.021 484.576 489.917 483.904 489.917 482.854C489.917 482.056 489.399 481.552 488.181 481.258L486.599 480.88C484.779 480.446 483.869 479.564 483.869 478.262C483.869 476.652 485.227 475.504 487.397 475.504C489.133 475.504 490.463 476.232 490.953 477.296L489.987 477.884C489.525 477.086 488.587 476.624 487.369 476.624C485.969 476.624 485.129 477.226 485.129 478.248C485.129 479.032 485.619 479.494 486.893 479.788L488.475 480.166C490.365 480.614 491.191 481.468 491.191 482.812C491.191 484.52 489.833 485.696 487.537 485.696C485.563 485.696 484.135 484.856 483.575 483.414ZM498.606 478.416H499.782V485.5H498.606V484.198C498.2 485.108 497.178 485.696 495.988 485.696C494.042 485.696 492.614 484.142 492.614 481.958C492.614 479.774 494.042 478.22 495.988 478.22C497.178 478.22 498.2 478.808 498.606 479.718V478.416ZM498.662 481.958C498.662 481.188 498.438 480.544 497.99 480.054C497.556 479.564 496.968 479.312 496.254 479.312C495.54 479.312 494.952 479.564 494.504 480.054C494.07 480.544 493.846 481.188 493.846 481.958C493.846 482.728 494.07 483.372 494.504 483.862C494.952 484.352 495.54 484.604 496.254 484.604C496.968 484.604 497.556 484.352 497.99 483.862C498.438 483.372 498.662 482.728 498.662 481.958ZM502.824 483.68V479.424H501.41V478.416H502.824V476.316H504V478.416H506.226V479.424H504V483.596C504 484.282 504.35 484.576 505.148 484.576C505.47 484.576 505.848 484.534 506.254 484.45V485.43C505.848 485.556 505.428 485.612 504.98 485.612C503.58 485.612 502.824 484.954 502.824 483.68Z" fill="#6B7280"/>
<path d="M573.982 483.414L574.976 482.84C575.494 483.96 576.558 484.576 577.958 484.576C579.428 484.576 580.324 483.904 580.324 482.854C580.324 482.056 579.806 481.552 578.588 481.258L577.006 480.88C575.186 480.446 574.276 479.564 574.276 478.262C574.276 476.652 575.634 475.504 577.804 475.504C579.54 475.504 580.87 476.232 581.36 477.296L580.394 477.884C579.932 477.086 578.994 476.624 577.776 476.624C576.376 476.624 575.536 477.226 575.536 478.248C575.536 479.032 576.026 479.494 577.3 479.788L578.882 480.166C580.772 480.614 581.598 481.468 581.598 482.812C581.598 484.52 580.24 485.696 577.944 485.696C575.97 485.696 574.542 484.856 573.982 483.414ZM583.386 482.854V478.416H584.562V482.784C584.562 483.96 585.248 484.604 586.438 484.604C587.628 484.604 588.314 483.96 588.314 482.784V478.416H589.49V482.854C589.49 484.534 588.272 485.696 586.438 485.696C584.604 485.696 583.386 484.534 583.386 482.854ZM598.025 480.964V485.5H596.849V481.244C596.849 479.9 596.345 479.312 595.225 479.312C593.951 479.312 593.041 480.096 593.041 481.286V485.5H591.865V478.416H593.041V479.62C593.433 478.724 594.343 478.22 595.505 478.22C597.115 478.22 598.025 479.214 598.025 480.964Z" fill="#6B7280"/>
</svg>
