<svg width="626" height="397" viewBox="0 0 626 397" fill="none" xmlns="http://www.w3.org/2000/svg">
<path d="M50.466 389.776V390.7H49.626V389.776C48.058 389.65 46.924 388.894 46.42 387.718L47.414 387.074C47.848 387.928 48.618 388.432 49.626 388.586V385.52L49.206 385.422C47.512 385.03 46.672 384.218 46.672 382.986C46.672 381.544 47.792 380.536 49.626 380.424V379.5H50.466V380.424C51.824 380.55 52.86 381.166 53.294 382.062L52.328 382.734C51.936 382.104 51.32 381.726 50.466 381.614V384.512L51.068 384.652C52.748 385.044 53.518 385.87 53.518 387.116C53.518 388.628 52.384 389.664 50.466 389.776ZM49.584 384.302L49.626 384.316V381.6C48.604 381.67 48.002 382.188 48.002 382.958C48.002 383.63 48.45 384.022 49.584 384.302ZM52.16 387.13C52.16 386.416 51.712 385.996 50.634 385.758L50.466 385.716V388.6C51.544 388.53 52.16 387.97 52.16 387.13ZM55.1219 385.1C55.1219 381.894 56.6479 380.004 59.0839 380.004C61.5059 380.004 63.0459 381.894 63.0459 385.1C63.0459 388.306 61.5059 390.196 59.0839 390.196C56.6479 390.196 55.1219 388.306 55.1219 385.1ZM61.6319 385.1C61.6319 382.524 60.7219 381.25 59.0839 381.25C57.4179 381.25 56.5219 382.524 56.5219 385.1C56.5219 387.676 57.4179 388.95 59.0839 388.95C60.7219 388.95 61.6319 387.676 61.6319 385.1Z" fill="#6B7280"/>
<line x1="96" y1="386" x2="624" y2="386" stroke="#E5E7EB" stroke-dasharray="5 5"/>
<path d="M20.0051 295.776V296.7H19.1651V295.776C17.5971 295.65 16.4631 294.894 15.9591 293.718L16.9531 293.074C17.3871 293.928 18.1571 294.432 19.1651 294.586V291.52L18.7451 291.422C17.0511 291.03 16.2111 290.218 16.2111 288.986C16.2111 287.544 17.3311 286.536 19.1651 286.424V285.5H20.0051V286.424C21.3631 286.55 22.3991 287.166 22.8331 288.062L21.8671 288.734C21.4751 288.104 20.8591 287.726 20.0051 287.614V290.512L20.6071 290.652C22.2871 291.044 23.0571 291.87 23.0571 293.116C23.0571 294.628 21.9231 295.664 20.0051 295.776ZM19.1231 290.302L19.1651 290.316V287.6C18.1431 287.67 17.5411 288.188 17.5411 288.958C17.5411 289.63 17.9891 290.022 19.1231 290.302ZM21.6991 293.13C21.6991 292.416 21.2511 291.996 20.1731 291.758L20.0051 291.716V294.6C21.0831 294.53 21.6991 293.97 21.6991 293.13ZM31.311 292.948C31.311 294.922 29.883 296.196 27.671 296.196C26.327 296.196 25.207 295.72 24.325 294.768L25.137 293.9C25.907 294.642 26.705 294.964 27.643 294.964C29.099 294.964 29.953 294.194 29.953 292.962C29.953 291.786 29.197 291.086 27.909 291.086C27.195 291.086 26.523 291.31 25.921 291.744L24.843 291.128V286.2H30.751V287.432H26.131V290.414C26.677 290.064 27.321 289.896 28.049 289.896C29.967 289.896 31.311 291.058 31.311 292.948ZM32.5001 298.1L33.1861 294.264H34.5441L33.5361 298.1H32.5001ZM35.4618 291.1C35.4618 287.894 36.9878 286.004 39.4238 286.004C41.8458 286.004 43.3858 287.894 43.3858 291.1C43.3858 294.306 41.8458 296.196 39.4238 296.196C36.9878 296.196 35.4618 294.306 35.4618 291.1ZM41.9718 291.1C41.9718 288.524 41.0618 287.25 39.4238 287.25C37.7578 287.25 36.8618 288.524 36.8618 291.1C36.8618 293.676 37.7578 294.95 39.4238 294.95C41.0618 294.95 41.9718 293.676 41.9718 291.1ZM45.2918 291.1C45.2918 287.894 46.8178 286.004 49.2538 286.004C51.6758 286.004 53.2158 287.894 53.2158 291.1C53.2158 294.306 51.6758 296.196 49.2538 296.196C46.8178 296.196 45.2918 294.306 45.2918 291.1ZM51.8018 291.1C51.8018 288.524 50.8918 287.25 49.2538 287.25C47.5878 287.25 46.6918 288.524 46.6918 291.1C46.6918 293.676 47.5878 294.95 49.2538 294.95C50.8918 294.95 51.8018 293.676 51.8018 291.1ZM55.1219 291.1C55.1219 287.894 56.6479 286.004 59.0839 286.004C61.5059 286.004 63.0459 287.894 63.0459 291.1C63.0459 294.306 61.5059 296.196 59.0839 296.196C56.6479 296.196 55.1219 294.306 55.1219 291.1ZM61.6319 291.1C61.6319 288.524 60.7219 287.25 59.0839 287.25C57.4179 287.25 56.5219 288.524 56.5219 291.1C56.5219 293.676 57.4179 294.95 59.0839 294.95C60.7219 294.95 61.6319 293.676 61.6319 291.1Z" fill="#6B7280"/>
<line x1="96" y1="292" x2="624" y2="292" stroke="#E5E7EB" stroke-dasharray="5 5"/>
<path d="M12.595 201.776V202.7H11.755V201.776C10.187 201.65 9.05295 200.894 8.54895 199.718L9.54295 199.074C9.97695 199.928 10.747 200.432 11.755 200.586V197.52L11.335 197.422C9.64095 197.03 8.80095 196.218 8.80095 194.986C8.80095 193.544 9.92095 192.536 11.755 192.424V191.5H12.595V192.424C13.953 192.55 14.989 193.166 15.423 194.062L14.457 194.734C14.065 194.104 13.449 193.726 12.595 193.614V196.512L13.197 196.652C14.877 197.044 15.647 197.87 15.647 199.116C15.647 200.628 14.513 201.664 12.595 201.776ZM11.713 196.302L11.755 196.316V193.6C10.733 193.67 10.131 194.188 10.131 194.958C10.131 195.63 10.579 196.022 11.713 196.302ZM14.289 199.13C14.289 198.416 13.841 197.996 12.763 197.758L12.595 197.716V200.6C13.673 200.53 14.289 199.97 14.289 199.13ZM19.6061 192.2H20.7261V202H19.3821V193.642L16.8341 194.944V193.628L19.6061 192.2ZM23.1434 197.1C23.1434 193.894 24.6694 192.004 27.1054 192.004C29.5274 192.004 31.0674 193.894 31.0674 197.1C31.0674 200.306 29.5274 202.196 27.1054 202.196C24.6694 202.196 23.1434 200.306 23.1434 197.1ZM29.6534 197.1C29.6534 194.524 28.7434 193.25 27.1054 193.25C25.4394 193.25 24.5434 194.524 24.5434 197.1C24.5434 199.676 25.4394 200.95 27.1054 200.95C28.7434 200.95 29.6534 199.676 29.6534 197.1ZM32.5001 204.1L33.1861 200.264H34.5441L33.5361 204.1H32.5001ZM35.4618 197.1C35.4618 193.894 36.9878 192.004 39.4238 192.004C41.8458 192.004 43.3858 193.894 43.3858 197.1C43.3858 200.306 41.8458 202.196 39.4238 202.196C36.9878 202.196 35.4618 200.306 35.4618 197.1ZM41.9718 197.1C41.9718 194.524 41.0618 193.25 39.4238 193.25C37.7578 193.25 36.8618 194.524 36.8618 197.1C36.8618 199.676 37.7578 200.95 39.4238 200.95C41.0618 200.95 41.9718 199.676 41.9718 197.1ZM45.2918 197.1C45.2918 193.894 46.8178 192.004 49.2538 192.004C51.6758 192.004 53.2158 193.894 53.2158 197.1C53.2158 200.306 51.6758 202.196 49.2538 202.196C46.8178 202.196 45.2918 200.306 45.2918 197.1ZM51.8018 197.1C51.8018 194.524 50.8918 193.25 49.2538 193.25C47.5878 193.25 46.6918 194.524 46.6918 197.1C46.6918 199.676 47.5878 200.95 49.2538 200.95C50.8918 200.95 51.8018 199.676 51.8018 197.1ZM55.1219 197.1C55.1219 193.894 56.6479 192.004 59.0839 192.004C61.5059 192.004 63.0459 193.894 63.0459 197.1C63.0459 200.306 61.5059 202.196 59.0839 202.196C56.6479 202.196 55.1219 200.306 55.1219 197.1ZM61.6319 197.1C61.6319 194.524 60.7219 193.25 59.0839 193.25C57.4179 193.25 56.5219 194.524 56.5219 197.1C56.5219 199.676 57.4179 200.95 59.0839 200.95C60.7219 200.95 61.6319 199.676 61.6319 197.1Z" fill="#6B7280"/>
<line x1="96" y1="198" x2="624" y2="198" stroke="#E5E7EB" stroke-dasharray="5 5"/>
<path d="M14.1125 107.776V108.7H13.2725V107.776C11.7045 107.65 10.5705 106.894 10.0665 105.718L11.0605 105.074C11.4945 105.928 12.2645 106.432 13.2725 106.586V103.52L12.8525 103.422C11.1585 103.03 10.3185 102.218 10.3185 100.986C10.3185 99.544 11.4385 98.536 13.2725 98.424V97.5H14.1125V98.424C15.4705 98.55 16.5065 99.166 16.9405 100.062L15.9745 100.734C15.5825 100.104 14.9665 99.726 14.1125 99.614V102.512L14.7145 102.652C16.3945 103.044 17.1645 103.87 17.1645 105.116C17.1645 106.628 16.0305 107.664 14.1125 107.776ZM13.2305 102.302L13.2725 102.316V99.6C12.2505 99.67 11.6485 100.188 11.6485 100.958C11.6485 101.63 12.0965 102.022 13.2305 102.302ZM15.8065 105.13C15.8065 104.416 15.3585 103.996 14.2805 103.758L14.1125 103.716V106.6C15.1905 106.53 15.8065 105.97 15.8065 105.13ZM21.1237 98.2H22.2437V108H20.8997V99.642L18.3517 100.944V99.628L21.1237 98.2ZM31.311 104.948C31.311 106.922 29.883 108.196 27.671 108.196C26.327 108.196 25.207 107.72 24.325 106.768L25.137 105.9C25.907 106.642 26.705 106.964 27.643 106.964C29.099 106.964 29.953 106.194 29.953 104.962C29.953 103.786 29.197 103.086 27.909 103.086C27.195 103.086 26.523 103.31 25.921 103.744L24.843 103.128V98.2H30.751V99.432H26.131V102.414C26.677 102.064 27.321 101.896 28.049 101.896C29.967 101.896 31.311 103.058 31.311 104.948ZM32.5001 110.1L33.1861 106.264H34.5441L33.5361 110.1H32.5001ZM35.4618 103.1C35.4618 99.894 36.9878 98.004 39.4238 98.004C41.8458 98.004 43.3858 99.894 43.3858 103.1C43.3858 106.306 41.8458 108.196 39.4238 108.196C36.9878 108.196 35.4618 106.306 35.4618 103.1ZM41.9718 103.1C41.9718 100.524 41.0618 99.25 39.4238 99.25C37.7578 99.25 36.8618 100.524 36.8618 103.1C36.8618 105.676 37.7578 106.95 39.4238 106.95C41.0618 106.95 41.9718 105.676 41.9718 103.1ZM45.2918 103.1C45.2918 99.894 46.8178 98.004 49.2538 98.004C51.6758 98.004 53.2158 99.894 53.2158 103.1C53.2158 106.306 51.6758 108.196 49.2538 108.196C46.8178 108.196 45.2918 106.306 45.2918 103.1ZM51.8018 103.1C51.8018 100.524 50.8918 99.25 49.2538 99.25C47.5878 99.25 46.6918 100.524 46.6918 103.1C46.6918 105.676 47.5878 106.95 49.2538 106.95C50.8918 106.95 51.8018 105.676 51.8018 103.1ZM55.1219 103.1C55.1219 99.894 56.6479 98.004 59.0839 98.004C61.5059 98.004 63.0459 99.894 63.0459 103.1C63.0459 106.306 61.5059 108.196 59.0839 108.196C56.6479 108.196 55.1219 106.306 55.1219 103.1ZM61.6319 103.1C61.6319 100.524 60.7219 99.25 59.0839 99.25C57.4179 99.25 56.5219 100.524 56.5219 103.1C56.5219 105.676 57.4179 106.95 59.0839 106.95C60.7219 106.95 61.6319 105.676 61.6319 103.1Z" fill="#6B7280"/>
<line x1="96" y1="104" x2="624" y2="104" stroke="#E5E7EB" stroke-dasharray="5 5"/>
<path d="M10.3391 13.776V14.7H9.49909V13.776C7.93109 13.65 6.79709 12.894 6.29309 11.718L7.28709 11.074C7.72109 11.928 8.49109 12.432 9.49909 12.586V9.52L9.07909 9.422C7.38509 9.03 6.54509 8.218 6.54509 6.986C6.54509 5.544 7.66509 4.536 9.49909 4.424V3.5H10.3391V4.424C11.6971 4.55 12.7331 5.166 13.1671 6.062L12.2011 6.734C11.8091 6.104 11.1931 5.726 10.3391 5.614V8.512L10.9411 8.652C12.6211 9.044 13.3911 9.87 13.3911 11.116C13.3911 12.628 12.2571 13.664 10.3391 13.776ZM9.45709 8.302L9.49909 8.316V5.6C8.47709 5.67 7.87509 6.188 7.87509 6.958C7.87509 7.63 8.32309 8.022 9.45709 8.302ZM12.0331 11.13C12.0331 10.416 11.5851 9.996 10.5071 9.758L10.3391 9.716V12.6C11.4171 12.53 12.0331 11.97 12.0331 11.13ZM16.591 12.754H21.533V14H14.645V12.88L18.215 9.548C18.887 8.918 19.349 8.414 19.587 8.022C19.839 7.63 19.965 7.238 19.965 6.832C19.965 5.824 19.321 5.236 18.243 5.236C17.137 5.236 16.269 5.824 15.639 7L14.603 6.3C15.373 4.802 16.633 4.004 18.215 4.004C20.105 4.004 21.351 5.152 21.351 6.804C21.351 7.854 20.847 8.792 19.517 10.024L16.591 12.754ZM23.1434 9.1C23.1434 5.894 24.6694 4.004 27.1054 4.004C29.5274 4.004 31.0674 5.894 31.0674 9.1C31.0674 12.306 29.5274 14.196 27.1054 14.196C24.6694 14.196 23.1434 12.306 23.1434 9.1ZM29.6534 9.1C29.6534 6.524 28.7434 5.25 27.1054 5.25C25.4394 5.25 24.5434 6.524 24.5434 9.1C24.5434 11.676 25.4394 12.95 27.1054 12.95C28.7434 12.95 29.6534 11.676 29.6534 9.1ZM32.5001 16.1L33.1861 12.264H34.5441L33.5361 16.1H32.5001ZM35.4618 9.1C35.4618 5.894 36.9878 4.004 39.4238 4.004C41.8458 4.004 43.3858 5.894 43.3858 9.1C43.3858 12.306 41.8458 14.196 39.4238 14.196C36.9878 14.196 35.4618 12.306 35.4618 9.1ZM41.9718 9.1C41.9718 6.524 41.0618 5.25 39.4238 5.25C37.7578 5.25 36.8618 6.524 36.8618 9.1C36.8618 11.676 37.7578 12.95 39.4238 12.95C41.0618 12.95 41.9718 11.676 41.9718 9.1ZM45.2918 9.1C45.2918 5.894 46.8178 4.004 49.2538 4.004C51.6758 4.004 53.2158 5.894 53.2158 9.1C53.2158 12.306 51.6758 14.196 49.2538 14.196C46.8178 14.196 45.2918 12.306 45.2918 9.1ZM51.8018 9.1C51.8018 6.524 50.8918 5.25 49.2538 5.25C47.5878 5.25 46.6918 6.524 46.6918 9.1C46.6918 11.676 47.5878 12.95 49.2538 12.95C50.8918 12.95 51.8018 11.676 51.8018 9.1ZM55.1219 9.1C55.1219 5.894 56.6479 4.004 59.0839 4.004C61.5059 4.004 63.0459 5.894 63.0459 9.1C63.0459 12.306 61.5059 14.196 59.0839 14.196C56.6479 14.196 55.1219 12.306 55.1219 9.1ZM61.6319 9.1C61.6319 6.524 60.7219 5.25 59.0839 5.25C57.4179 5.25 56.5219 6.524 56.5219 9.1C56.5219 11.676 57.4179 12.95 59.0839 12.95C60.7219 12.95 61.6319 11.676 61.6319 9.1Z" fill="#6B7280"/>
<line x1="96" y1="10" x2="624" y2="10" stroke="#E5E7EB" stroke-dasharray="5 5"/>
<path fill-rule="evenodd" clip-rule="evenodd" d="M96 349.472L154.667 284.419L213.333 316.945L272 154.312L330.667 316.945L389.333 251.892L448 316.945L506.667 219.366L565.333 251.892L624 316.945V381.998H96V349.472Z" fill="url(#paint0_linear_14075_12695)"/>
<path d="M96 348.153L154.667 283.13L213.333 315.641L272 153.082L330.667 315.641L389.333 250.618L448 315.641L506.667 218.106L565.333 250.618L624 315.641" stroke="#00A2D4" stroke-width="4"/>
<defs>
<linearGradient id="paint0_linear_14075_12695" x1="360" y1="154.312" x2="360" y2="381.998" gradientUnits="userSpaceOnUse">
<stop stop-color="#00A2D4" stop-opacity="0.16"/>
<stop offset="1" stop-color="#00A2D4" stop-opacity="0"/>
</linearGradient>
</defs>
</svg>
